<svg width="309" height="29" viewBox="0 0 309 29" fill="none" xmlns="http://www.w3.org/2000/svg">
<path d="M0.375 1H3.75V28H0.375V1ZM13.875 3.25V28H10.5V1H16.125L31.8574 24.625L47.5898 1H52.9688V28H49.5938V3.61914L33.5625 28H30.1523L13.875 3.25ZM59.7188 1H80.0039C81.6797 1 83.0918 1.07617 84.2402 1.22852C85.4004 1.36914 86.3555 1.58594 87.1055 1.87891C87.8555 2.17188 88.4297 2.53516 88.8281 2.96875C89.2383 3.40234 89.5371 3.91211 89.7246 4.49805C89.9121 5.08398 90.0176 5.74023 90.041 6.4668C90.0762 7.19336 90.0938 7.99609 90.0938 8.875C90.0938 9.78906 90.0703 10.6328 90.0234 11.4062C89.9883 12.1797 89.8535 12.8828 89.6191 13.5156C89.3965 14.1367 89.0332 14.6875 88.5293 15.168C88.0371 15.6367 87.3281 16.0293 86.4023 16.3457C85.4883 16.6621 84.3223 16.9023 82.9043 17.0664C81.498 17.2305 79.7637 17.3125 77.7012 17.3125H63.0938V28H59.7188V1ZM63.0938 14.5H77.7012C79.2012 14.5 80.4609 14.4766 81.4805 14.4297C82.5117 14.3711 83.3613 14.2715 84.0293 14.1309C84.6973 13.9902 85.2129 13.791 85.5762 13.5332C85.9395 13.2754 86.2031 12.9355 86.3672 12.5137C86.543 12.0918 86.6426 11.5879 86.666 11.002C86.7012 10.4043 86.7188 9.69531 86.7188 8.875C86.7188 8.11328 86.7012 7.45703 86.666 6.90625C86.6426 6.35547 86.543 5.89258 86.3672 5.51758C86.2031 5.14258 85.9395 4.84375 85.5762 4.62109C85.2129 4.39844 84.6973 4.22852 84.0293 4.11133C83.3613 3.98242 82.5117 3.90039 81.4805 3.86523C80.4609 3.83008 79.2012 3.8125 77.7012 3.8125H63.0938V14.5ZM94.5938 28V1H121.594V3.8125H97.9688V12.8125H120.469V15.625H97.9688V25.1875H121.594V28H94.5938ZM143.971 13.7617L159.844 28H155.062L141.615 15.9414L128.625 28H123.844L139.189 13.7617L124.969 1H129.75L141.527 11.582L152.936 1H157.717L143.971 13.7617Z" fill="white"/>
<path d="M192.451 9.4375C192.451 8.03125 192.299 6.91797 191.994 6.09766C191.689 5.27734 191.186 4.65625 190.482 4.23438C189.779 3.8125 188.854 3.54297 187.705 3.42578C186.568 3.30859 185.156 3.25 183.469 3.25H175.576C174.076 3.25 172.811 3.29688 171.779 3.39062C170.76 3.47266 169.916 3.64844 169.248 3.91797C168.58 4.1875 168.064 4.57422 167.701 5.07812C167.338 5.58203 167.074 6.25 166.91 7.08203C166.746 7.91406 166.652 8.93945 166.629 10.1582C166.605 11.3652 166.594 12.8125 166.594 14.5C166.594 16.1875 166.605 17.6406 166.629 18.8594C166.664 20.0664 166.764 21.0859 166.928 21.918C167.092 22.75 167.35 23.418 167.701 23.9219C168.064 24.4258 168.58 24.8125 169.248 25.082C169.916 25.3516 170.76 25.5332 171.779 25.627C172.811 25.709 174.076 25.75 175.576 25.75H183.469C184.781 25.75 185.912 25.7148 186.861 25.6445C187.811 25.5742 188.619 25.4453 189.287 25.2578C189.955 25.0703 190.494 24.8125 190.904 24.4844C191.314 24.1562 191.631 23.7461 191.854 23.2539C192.088 22.75 192.246 22.1523 192.328 21.4609C192.41 20.7578 192.451 19.9375 192.451 19H195.826C195.826 20.125 195.756 21.1445 195.615 22.0586C195.475 22.9609 195.223 23.7695 194.859 24.4844C194.508 25.1875 194.033 25.7969 193.436 26.3125C192.838 26.8281 192.082 27.2559 191.168 27.5957C190.254 27.9238 189.164 28.1641 187.898 28.3164C186.633 28.4805 185.156 28.5625 183.469 28.5625H175.576C173.514 28.5625 171.773 28.4336 170.355 28.1758C168.949 27.9297 167.789 27.5547 166.875 27.0508C165.961 26.5352 165.252 25.8906 164.748 25.1172C164.256 24.3438 163.893 23.4355 163.658 22.3926C163.436 21.3496 163.307 20.1719 163.271 18.8594C163.236 17.5469 163.219 16.0938 163.219 14.5C163.219 12.9062 163.236 11.4531 163.271 10.1406C163.307 8.82812 163.436 7.65039 163.658 6.60742C163.893 5.56445 164.256 4.65625 164.748 3.88281C165.252 3.10938 165.961 2.4707 166.875 1.9668C167.789 1.45117 168.949 1.07031 170.355 0.824219C171.773 0.566406 173.514 0.4375 175.576 0.4375H183.469C185.156 0.4375 186.633 0.519531 187.898 0.683594C189.164 0.835938 190.254 1.07617 191.168 1.4043C192.082 1.7207 192.838 2.125 193.436 2.61719C194.033 3.10938 194.508 3.68945 194.859 4.35742C195.223 5.02539 195.475 5.78125 195.615 6.625C195.756 7.46875 195.826 8.40625 195.826 9.4375H192.451ZM222.861 0.4375C224.924 0.4375 226.658 0.566406 228.064 0.824219C229.482 1.07031 230.648 1.45117 231.562 1.9668C232.477 2.4707 233.18 3.10938 233.672 3.88281C234.164 4.65625 234.521 5.56445 234.744 6.60742C234.979 7.65039 235.113 8.82812 235.148 10.1406C235.195 11.4531 235.219 12.9062 235.219 14.5C235.219 16.0938 235.195 17.5469 235.148 18.8594C235.113 20.1719 234.979 21.3496 234.744 22.3926C234.521 23.4355 234.164 24.3438 233.672 25.1172C233.18 25.8906 232.477 26.5352 231.562 27.0508C230.648 27.5547 229.482 27.9297 228.064 28.1758C226.658 28.4336 224.924 28.5625 222.861 28.5625H212.701C210.639 28.5625 208.898 28.4336 207.48 28.1758C206.074 27.9297 204.914 27.5547 204 27.0508C203.086 26.5352 202.377 25.8906 201.873 25.1172C201.381 24.3438 201.018 23.4355 200.783 22.3926C200.561 21.3496 200.432 20.1719 200.396 18.8594C200.361 17.5469 200.344 16.0938 200.344 14.5C200.344 12.9062 200.361 11.4531 200.396 10.1406C200.432 8.82812 200.561 7.65039 200.783 6.60742C201.018 5.56445 201.381 4.65625 201.873 3.88281C202.377 3.10938 203.086 2.4707 204 1.9668C204.914 1.45117 206.074 1.07031 207.48 0.824219C208.898 0.566406 210.639 0.4375 212.701 0.4375H222.861ZM222.861 25.75C224.35 25.75 225.604 25.709 226.623 25.627C227.654 25.5332 228.504 25.3516 229.172 25.082C229.84 24.8125 230.355 24.4258 230.719 23.9219C231.082 23.418 231.346 22.75 231.51 21.918C231.674 21.0859 231.768 20.0664 231.791 18.8594C231.826 17.6406 231.844 16.1875 231.844 14.5C231.844 12.8125 231.826 11.3652 231.791 10.1582C231.768 8.93945 231.674 7.91406 231.51 7.08203C231.346 6.25 231.082 5.58203 230.719 5.07812C230.355 4.57422 229.84 4.1875 229.172 3.91797C228.516 3.64844 227.672 3.47266 226.641 3.39062C225.621 3.29688 224.361 3.25 222.861 3.25H212.701C211.201 3.25 209.936 3.29688 208.904 3.39062C207.885 3.47266 207.041 3.64844 206.373 3.91797C205.705 4.1875 205.189 4.57422 204.826 5.07812C204.463 5.58203 204.199 6.25 204.035 7.08203C203.871 7.91406 203.777 8.93945 203.754 10.1582C203.73 11.3652 203.719 12.8125 203.719 14.5C203.719 16.1875 203.73 17.6406 203.754 18.8594C203.789 20.0664 203.889 21.0859 204.053 21.918C204.217 22.75 204.475 23.418 204.826 23.9219C205.189 24.4258 205.705 24.8125 206.373 25.082C207.041 25.3516 207.885 25.5332 208.904 25.627C209.936 25.709 211.201 25.75 212.701 25.75H222.861ZM271.781 28H268.406V22.9375C268.406 22.1172 268.389 21.4141 268.354 20.8281C268.33 20.2305 268.23 19.7207 268.055 19.2988C267.891 18.877 267.627 18.5371 267.264 18.2793C266.9 18.0215 266.385 17.8223 265.717 17.6816C265.049 17.541 264.199 17.4473 263.168 17.4004C262.148 17.3418 260.889 17.3125 259.389 17.3125H244.219V28H240.844V1H259.951C262.014 1 263.748 1.07617 265.154 1.22852C266.572 1.36914 267.738 1.58594 268.652 1.87891C269.578 2.17188 270.287 2.53516 270.779 2.96875C271.283 3.40234 271.646 3.91211 271.869 4.49805C272.104 5.08398 272.238 5.74023 272.273 6.4668C272.32 7.19336 272.344 7.99609 272.344 8.875C272.344 10 272.262 10.9902 272.098 11.8457C271.945 12.6895 271.682 13.4102 271.307 14.0078C270.932 14.6055 270.434 15.0859 269.812 15.4492C269.191 15.8008 268.412 16.0469 267.475 16.1875C268.412 16.3281 269.162 16.5742 269.725 16.9258C270.287 17.2773 270.721 17.7344 271.025 18.2969C271.33 18.8594 271.529 19.5273 271.623 20.3008C271.729 21.0742 271.781 21.9531 271.781 22.9375V28ZM244.219 14.5H259.951C261.451 14.5 262.711 14.4766 263.73 14.4297C264.762 14.3711 265.611 14.2715 266.279 14.1309C266.947 13.9902 267.463 13.791 267.826 13.5332C268.189 13.2754 268.453 12.9355 268.617 12.5137C268.793 12.0918 268.893 11.5879 268.916 11.002C268.951 10.4043 268.969 9.69531 268.969 8.875C268.969 8.11328 268.951 7.45703 268.916 6.90625C268.893 6.35547 268.793 5.89258 268.617 5.51758C268.453 5.14258 268.189 4.84375 267.826 4.62109C267.463 4.39844 266.947 4.22852 266.279 4.11133C265.611 3.98242 264.762 3.90039 263.73 3.86523C262.711 3.83008 261.451 3.8125 259.951 3.8125H244.219V14.5ZM277.969 1H298.254C299.93 1 301.342 1.07617 302.49 1.22852C303.65 1.36914 304.605 1.58594 305.355 1.87891C306.105 2.17188 306.68 2.53516 307.078 2.96875C307.488 3.40234 307.787 3.91211 307.975 4.49805C308.162 5.08398 308.268 5.74023 308.291 6.4668C308.326 7.19336 308.344 7.99609 308.344 8.875C308.344 9.78906 308.32 10.6328 308.273 11.4062C308.238 12.1797 308.104 12.8828 307.869 13.5156C307.646 14.1367 307.283 14.6875 306.779 15.168C306.287 15.6367 305.578 16.0293 304.652 16.3457C303.738 16.6621 302.572 16.9023 301.154 17.0664C299.748 17.2305 298.014 17.3125 295.951 17.3125H281.344V28H277.969V1ZM281.344 14.5H295.951C297.451 14.5 298.711 14.4766 299.73 14.4297C300.762 14.3711 301.611 14.2715 302.279 14.1309C302.947 13.9902 303.463 13.791 303.826 13.5332C304.189 13.2754 304.453 12.9355 304.617 12.5137C304.793 12.0918 304.893 11.5879 304.916 11.002C304.951 10.4043 304.969 9.69531 304.969 8.875C304.969 8.11328 304.951 7.45703 304.916 6.90625C304.893 6.35547 304.793 5.89258 304.617 5.51758C304.453 5.14258 304.189 4.84375 303.826 4.62109C303.463 4.39844 302.947 4.22852 302.279 4.11133C301.611 3.98242 300.762 3.90039 299.73 3.86523C298.711 3.83008 297.451 3.8125 295.951 3.8125H281.344V14.5Z" fill="#FF6006"/>
</svg>
