<svg width="220" height="27" viewBox="0 0 220 27" fill="none" xmlns="http://www.w3.org/2000/svg">
<path d="M0.776 26V0.799998H6.32V26H0.776ZM12.6178 26V0.799998H18.5938L25.2178 11.456L31.8418 0.799998H37.8178V26H32.3098V9.548L25.2178 20.312H25.0738L18.0538 9.656V26H12.6178ZM43.8717 26V0.799998H54.1677C57.1437 0.799998 59.4957 1.604 61.2237 3.212C62.9517 4.82 63.8157 6.944 63.8157 9.584C63.8157 12.392 62.8557 14.576 60.9357 16.136C59.0157 17.672 56.5797 18.44 53.6277 18.44H49.4157V26H43.8717ZM49.4157 13.508H53.8077C55.1757 13.508 56.2437 13.148 57.0117 12.428C57.8037 11.708 58.1997 10.772 58.1997 9.62C58.1997 8.396 57.8037 7.46 57.0117 6.812C56.2197 6.14 55.1157 5.804 53.6997 5.804H49.4157V13.508ZM67.9185 26V0.799998H86.9265V5.732H73.4265V10.844H85.3065V15.776H73.4265V21.068H87.1065V26H67.9185ZM90.1277 26L98.9117 13.184L90.4877 0.799998H96.9677L102.26 8.972L107.588 0.799998H113.888L105.464 13.112L114.248 26H107.768L102.116 17.36L96.4277 26H90.1277ZM128.418 26.432C124.722 26.432 121.638 25.184 119.166 22.688C116.718 20.168 115.494 17.072 115.494 13.4C115.494 9.752 116.73 6.668 119.202 4.148C121.674 1.628 124.818 0.368 128.634 0.368C130.818 0.368 132.654 0.727999 134.142 1.448C135.63 2.144 137.046 3.152 138.39 4.472L135.078 8.288C133.998 7.304 132.978 6.596 132.018 6.164C131.082 5.708 129.942 5.48 128.598 5.48C126.486 5.48 124.734 6.248 123.342 7.784C121.974 9.296 121.29 11.168 121.29 13.4C121.29 15.608 121.974 17.48 123.342 19.016C124.734 20.552 126.486 21.32 128.598 21.32C129.942 21.32 131.106 21.08 132.09 20.6C133.074 20.12 134.118 19.376 135.222 18.368L138.75 22.148C137.382 23.612 135.894 24.692 134.286 25.388C132.702 26.084 130.746 26.432 128.418 26.432ZM164.301 22.652C161.757 25.172 158.565 26.432 154.725 26.432C150.885 26.432 147.693 25.172 145.149 22.652C142.629 20.132 141.369 17.048 141.369 13.4C141.369 9.776 142.641 6.704 145.185 4.184C147.753 1.64 150.957 0.368 154.797 0.368C158.637 0.368 161.817 1.628 164.337 4.148C166.881 6.668 168.153 9.752 168.153 13.4C168.153 17.024 166.869 20.108 164.301 22.652ZM149.325 19.016C150.765 20.552 152.589 21.32 154.797 21.32C157.005 21.32 158.817 20.564 160.233 19.052C161.649 17.516 162.357 15.632 162.357 13.4C162.357 11.192 161.637 9.32 160.197 7.784C158.757 6.248 156.933 5.48 154.725 5.48C152.517 5.48 150.705 6.248 149.289 7.784C147.873 9.296 147.165 11.168 147.165 13.4C147.165 15.608 147.885 17.48 149.325 19.016ZM173.071 26V0.799998H184.591C187.783 0.799998 190.231 1.652 191.935 3.356C193.375 4.796 194.095 6.74 194.095 9.188C194.095 13.052 192.295 15.656 188.695 17L194.851 26H188.371L182.899 17.936H178.615V26H173.071ZM178.615 13.04H184.231C185.575 13.04 186.619 12.716 187.363 12.068C188.107 11.396 188.479 10.508 188.479 9.404C188.479 8.228 188.095 7.34 187.327 6.74C186.559 6.116 185.491 5.804 184.123 5.804H178.615V13.04ZM199.087 26V0.799998H209.383C212.359 0.799998 214.711 1.604 216.439 3.212C218.167 4.82 219.031 6.944 219.031 9.584C219.031 12.392 218.071 14.576 216.151 16.136C214.231 17.672 211.795 18.44 208.843 18.44H204.631V26H199.087ZM204.631 13.508H209.023C210.391 13.508 211.459 13.148 212.227 12.428C213.019 11.708 213.415 10.772 213.415 9.62C213.415 8.396 213.019 7.46 212.227 6.812C211.435 6.14 210.331 5.804 208.915 5.804H204.631V13.508Z" fill="#19746B"/>
</svg>
