<svg width="44" height="45" viewBox="0 0 44 45" fill="none" xmlns="http://www.w3.org/2000/svg">
<path d="M27.592 9.66668C29.3826 10.016 31.0283 10.8918 32.3184 12.1819C33.6085 13.472 34.4843 15.1177 34.8336 16.9083M27.592 2.33334C31.3123 2.74664 34.7815 4.41266 37.4301 7.05786C40.0786 9.70305 41.749 13.1702 42.167 16.89M40.3336 31.52V37.02C40.3357 37.5306 40.2311 38.036 40.0266 38.5038C39.822 38.9716 39.522 39.3916 39.1458 39.7368C38.7695 40.0819 38.3253 40.3447 37.8417 40.5083C37.358 40.6719 36.8455 40.7326 36.337 40.6867C30.6955 40.0737 25.2765 38.1459 20.5153 35.0583C16.0856 32.2436 12.3301 28.488 9.51529 24.0583C6.41691 19.2756 4.48873 13.8302 3.88695 8.16334C3.84114 7.65637 3.90139 7.1454 4.06387 6.66299C4.22635 6.18057 4.4875 5.73727 4.83069 5.36132C5.17388 4.98536 5.59159 4.68498 6.05723 4.4793C6.52288 4.27362 7.02624 4.16716 7.53529 4.16668H13.0353C13.925 4.15792 14.7876 4.47299 15.4622 5.05315C16.1368 5.63332 16.5774 6.439 16.702 7.32001C16.9341 9.08013 17.3646 10.8083 17.9853 12.4717C18.2319 13.1279 18.2853 13.841 18.1391 14.5266C17.9929 15.2122 17.6532 15.8415 17.1603 16.34L14.832 18.6683C17.4418 23.2582 21.2421 27.0585 25.832 29.6683L28.1603 27.34C28.6587 26.8471 29.2881 26.5074 29.9737 26.3612C30.6593 26.215 31.3724 26.2683 32.0286 26.515C33.692 27.1357 35.4202 27.5662 37.1803 27.7983C38.0709 27.924 38.8842 28.3726 39.4656 29.0588C40.047 29.7449 40.3559 30.6209 40.3336 31.52Z" stroke="white" stroke-width="2" stroke-linecap="round" stroke-linejoin="round"/>
</svg>
