<svg width="36" height="40" viewBox="0 0 36 40" fill="none" xmlns="http://www.w3.org/2000/svg">
<path fill-rule="evenodd" clip-rule="evenodd" d="M17.9991 0C8.07371 0 0 8.9723 0 20C0 31.0277 8.07371 40 17.9991 40C27.9245 40 36 31.0277 36 20C36 8.9723 27.9245 0 17.9991 0ZM17.9991 36.9755C9.57512 36.9755 2.72046 29.3615 2.72046 20C2.72046 10.6405 9.57512 3.02453 17.9991 3.02453C26.4231 3.02453 33.2778 10.6405 33.2778 20C33.2778 29.3615 26.4231 36.9755 17.9991 36.9755ZM20.0962 20.2608C20.0962 21.7745 18.9553 23 17.548 23C16.1389 23 15 21.7745 15 20.2608C15 18.7492 16.1389 17.5216 17.548 17.5216C17.5563 17.5216 17.5651 17.5226 17.574 17.5236C17.5834 17.5246 17.5931 17.5257 17.6028 17.5257L27 10L20.0829 19.9666C20.0905 20.066 20.0962 20.1614 20.0962 20.2608ZM10.8867 26.1816H21.2768H25.1125V32.5345H10.8867V26.1816ZM12.1236 31.1583H13.4838V27.5539H12.1236V31.1583ZM14.7206 31.1583H16.0809V27.5539H14.7206V31.1583ZM17.3195 31.1583H18.6798V27.5539H17.3195V31.1583ZM19.9166 31.1583H21.2768V27.5539H19.9166V31.1583ZM23.8739 31.1583V27.5539H22.5137V31.1583H23.8739Z" fill="#6C6C6C"/>
</svg>
