<svg width="33" height="40" viewBox="0 0 33 40" fill="none" xmlns="http://www.w3.org/2000/svg">
<path d="M23.0238 40H2.49261C1.11895 40 0 38.3867 0 36.4055V29.7377C0 27.752 1.11895 26.1387 2.49261 26.1387H17.5256L22.4897 2.65358C22.82 1.09212 23.9284 0 25.1879 0C25.4355 0 25.6832 0.0428857 25.9239 0.126374L30.9337 1.87286C31.6557 2.12333 32.2565 2.72353 32.6289 3.5539C33.0013 4.38878 33.0961 5.35908 32.9011 6.28648L26.3367 37.3464C26.0082 38.9011 24.8981 39.991 23.6386 39.991C23.542 39.991 23.44 39.9842 23.3434 39.9684C23.2363 39.991 23.1309 40 23.0238 40ZM2.49261 28.9818C2.42235 28.9818 2.21154 29.2413 2.21154 29.7377V36.4055C2.21154 36.8974 2.42235 37.1592 2.49261 37.1592H23.022L23.2626 37.0757L23.5244 37.1321C23.8301 37.211 24.1234 36.9696 24.2007 36.6018L30.7651 5.54184C30.8072 5.34553 30.7862 5.14244 30.7089 4.9687C30.6299 4.79495 30.5034 4.67088 30.3541 4.61447L25.3425 2.86799C25.0298 2.75968 24.7066 3.0056 24.624 3.39822L19.2154 28.9818H2.49261Z" fill="#6C6C6C"/>
</svg>
